# xmcd CD database file
#
# Track frame offsets:
#	150
#	25887
#	48468
#	68179
#	91261
#	108169
#	131264
#	152799
#
# Disc length: 2452 seconds
#
# Revision: 0
# Processed by: cddbd v1.5.2PL0 Copyright (c) Steve Scherf et al.
# Submitted via: CDex 1.70beta2
#
DISCID=5e099208
DTITLE=native - going with the flow
DYEAR=2011
DGENRE=Jazz
TTITLE0=ritmo de esperanza 
TTITLE1=still
TTITLE2=ground entrance
TTITLE3=melancholy Smile
TTITLE4=summer house
TTITLE5=going with the flow
TTITLE6=savanna
TTITLE7=still macrophage lab. ∈HIEI dub house remix 
EXTD=YEAR: 2011
EXTT0=
EXTT1=
EXTT2=
EXTT3=
EXTT4=
EXTT5=
EXTT6=
EXTT7=
PLAYORDER=
